<svg width="12" height="18" viewBox="0 0 12 18" fill="none" xmlns="http://www.w3.org/2000/svg">
<path d="M0.301888 4.46087C0.327044 4.38261 0.37107 4.2587 0.433964 4.08913C0.496857 3.91957 0.540881 3.8087 0.566038 3.75652C1.09434 2.47826 1.86793 1.53261 2.88679 0.919565C3.90566 0.306522 4.96855 0 6.07547 0C7.50943 0 8.80503 0.48913 9.96226 1.46739C11.1195 2.44565 11.7987 3.82174 12 5.59565V6.33913L11.9623 6.53478V6.8087C11.9119 7.22609 11.7799 7.70217 11.566 8.23696C11.3522 8.77174 11.1572 9.20217 10.9811 9.52826C10.805 9.85435 10.522 10.35 10.1321 11.0152C9.74214 11.6804 9.48428 12.1174 9.35849 12.3261C8.62893 13.6043 7.50943 15.4957 6 18C5.79874 17.6609 5.10692 16.4348 3.92453 14.3217C3.87421 14.2435 3.77987 14.087 3.64151 13.8522C3.50315 13.6174 3.4088 13.4348 3.35849 13.3043C3.30818 13.2261 3.22642 13.1152 3.11321 12.9717C3 12.8283 2.91824 12.7174 2.86793 12.6391C2.69182 12.3 2.30818 11.6543 1.71698 10.7022C1.12579 9.75 0.691825 8.94783 0.415095 8.29565C0.138366 7.64348 9.53674e-07 7.00435 9.53674e-07 6.37826V5.51739C9.53674e-07 5.23043 0.10063 4.87826 0.301888 4.46087ZM6.03774 8.33478C7.01887 8.33478 7.69811 7.83913 8.07547 6.84783C8.10063 6.71739 8.11321 6.52174 8.11321 6.26087V5.75217C8.11321 5.1 7.89937 4.59783 7.4717 4.24565C7.04403 3.89348 6.54088 3.71739 5.96226 3.71739C5.33333 3.71739 4.81132 3.93913 4.39623 4.38261C3.98113 4.82609 3.77359 5.37391 3.77359 6.02609C3.77359 6.67826 3.99371 7.22609 4.43396 7.66957C4.87421 8.11304 5.40881 8.33478 6.03774 8.33478Z" fill="#128CD1"/>
</svg>
